<svg width="401" height="97" viewBox="0 0 401 97" fill="none" xmlns="http://www.w3.org/2000/svg">
<g clip-path="url(#clip0_2_10631)">
<rect x="-468" width="1280" height="97" rx="3" fill="#3A3A3A" fill-opacity="0.93"/>
<path d="M108.947 68.5503L110.258 70.3802C110.258 70.3802 111.79 69.2573 112.956 70.8406C113.186 71.1419 113.317 71.5087 113.331 71.8904C113.345 72.2721 113.242 72.6498 113.036 72.9711C112.867 73.2461 112.636 73.4767 112.362 73.6438C112.089 73.811 111.78 73.9097 111.462 73.932C110.73 73.995 109.781 73.652 109.119 72.2556L105.008 75.2682L106.3 77.0835L108.704 75.3151C108.704 75.3151 111.169 77.3875 113.954 75.345C116.62 73.3902 115.529 70.5262 114.796 69.4941C114.24 68.7104 112.139 66.1585 108.947 68.5503Z" fill="#ABABAB"/>
<path d="M105.476 77.7013L104.164 75.8577L102.452 77.1096L103.764 78.9533L105.476 77.7013Z" fill="#ABABAB"/>
<path d="M93.6861 71.077L93.0176 71.6709C93.085 71.7466 93.1366 71.8353 93.1693 71.9318C93.202 72.0283 93.2151 72.1305 93.2078 72.2325C93.2006 72.3344 93.1732 72.434 93.1271 72.5252C93.0811 72.6164 93.0175 72.6975 92.94 72.7636C92.8316 72.8685 92.6938 72.9369 92.5457 72.9594C92.3976 72.9819 92.2465 72.9573 92.1134 72.889C92.0014 72.8331 91.9042 72.7512 91.8298 72.6499C91.7555 72.5485 91.706 72.4307 91.6854 72.3061C91.6322 72.0174 91.7291 71.624 92.2481 71.2989L90.9178 69.7929L90.2591 70.3816L91.0374 71.2642C90.8375 71.5871 90.7479 71.9668 90.7823 72.3448C90.8168 72.7228 90.9734 73.078 91.2281 73.3559C92.0892 74.335 93.166 73.7719 93.5355 73.4393C93.8267 73.192 94.7388 72.246 93.6861 71.077Z" fill="#767676"/>
<path d="M89.8643 70.2564L90.5312 69.6492L89.9749 69.0225L89.308 69.6297L89.8643 70.2564Z" fill="#767676"/>
<path d="M29.4676 78.9003L28.5871 79.0122C28.5987 79.1135 28.5901 79.2162 28.5618 79.3141C28.5336 79.4121 28.4863 79.5034 28.4227 79.5826C28.3591 79.6618 28.2805 79.7273 28.1916 79.7754C28.1026 79.8234 28.005 79.853 27.9047 79.8623C27.7588 79.886 27.6093 79.8636 27.4767 79.798C27.3441 79.7325 27.2348 79.627 27.1638 79.496C27.1021 79.3848 27.0674 79.2603 27.0626 79.1328C27.0577 79.0053 27.0828 78.8784 27.1357 78.7626C27.2491 78.4973 27.5549 78.2276 28.1621 78.2589L27.9191 76.2477L27.0475 76.3576L27.1882 77.5315C26.8434 77.6828 26.5571 77.9442 26.3731 78.2758C26.1892 78.6074 26.1178 78.9909 26.1699 79.3672C26.331 80.6702 27.5215 80.8274 28.0152 80.7651C28.3981 80.7274 29.6745 80.4714 29.4676 78.9003Z" fill="#767676"/>
<path d="M26.9829 75.9567L27.8672 75.8457L27.7657 75.0109L26.8815 75.1219L26.9829 75.9567Z" fill="#767676"/>
<path d="M95.04 34.2851L93.7767 35.7085C93.7767 35.7085 94.9559 36.7799 93.868 38.0456C93.662 38.2923 93.3858 38.4689 93.0773 38.5509C92.7689 38.633 92.4434 38.6165 92.1458 38.5037C91.8946 38.4119 91.6688 38.2613 91.4867 38.0642C91.3047 37.8671 91.1715 37.6291 91.0981 37.3695C90.9209 36.7691 91.0337 35.9096 92.0604 35.1035L88.89 32.2277L87.6227 33.6432L89.4797 35.3278C89.4797 35.3278 88.228 37.7606 90.3673 39.7176C92.4256 41.5821 94.5779 40.138 95.284 39.3431C95.8295 38.7306 97.5432 36.5099 95.04 34.2851Z" fill="#767676"/>
<path d="M86.9523 33.0521L88.2266 31.6187L86.9115 30.4213L85.6372 31.8548L86.9523 33.0521Z" fill="#767676"/>
<path d="M12.1033 19.3426L10.8448 20.7635C10.8448 20.7635 12.0251 21.8382 10.9415 23.1018C10.7363 23.3481 10.4608 23.5241 10.1529 23.6055C9.84497 23.6868 9.51982 23.6695 9.22227 23.556C8.97117 23.4635 8.74528 23.3122 8.56297 23.1146C8.38067 22.917 8.24712 22.6785 8.17318 22.4186C7.99469 21.8176 8.10539 20.9579 9.12898 20.154L5.95543 17.269L4.69292 18.682L6.5518 20.372C6.5518 20.372 5.30723 22.8028 7.44871 24.766C9.50908 26.6364 11.6555 25.1969 12.3589 24.4034C12.9023 23.792 14.6089 21.5745 12.1033 19.3426Z" fill="#767676"/>
<path d="M3.95536 18.2222L5.22656 16.792L3.90843 15.5915L2.63722 17.0217L3.95536 18.2222Z" fill="#767676"/>
<path d="M21.4919 64.5573L22.3904 63.5486C22.3904 63.5486 21.5538 62.7854 22.3224 61.891C22.4684 61.7173 22.6635 61.5931 22.8814 61.5353C23.0993 61.4775 23.3294 61.4889 23.5405 61.5678C23.7184 61.6334 23.8784 61.7407 24.0075 61.8809C24.1365 62.0211 24.231 62.1902 24.2831 62.3744C24.4114 62.8069 24.3286 63.4079 23.6051 63.97L25.8464 66.0289L26.7352 65.0302L25.4186 63.8312C25.6644 63.3132 25.7354 62.728 25.6205 62.1656C25.5056 61.6032 25.2113 61.0948 24.7828 60.7186C23.3259 59.3924 21.8095 60.4077 21.3051 60.9741C20.9256 61.4064 19.7171 62.976 21.4919 64.5573Z" fill="#ABABAB"/>
<path d="M27.2134 65.4381L26.3125 66.4517L27.2456 67.3016L28.1465 66.288L27.2134 65.4381Z" fill="#ABABAB"/>
<path d="M64.0465 11.3647L64.9451 10.356C64.9451 10.356 64.1085 9.59279 64.8771 8.69839C65.0231 8.52469 65.2182 8.40052 65.4361 8.34271C65.654 8.2849 65.884 8.29624 66.0952 8.3752C66.2731 8.4408 66.4331 8.54808 66.5622 8.68826C66.6912 8.82844 66.7856 8.99756 66.8377 9.18181C66.9661 9.61427 66.8833 10.2153 66.1598 10.7773L68.4011 12.8363L69.2899 11.8376L67.9732 10.6386C68.2191 10.1206 68.2901 9.53533 68.1752 8.97294C68.0603 8.41055 67.766 7.90216 67.3375 7.52597C65.8806 6.19981 64.3642 7.2151 63.8598 7.78149C63.4803 8.21374 62.2718 9.78341 64.0465 11.3647Z" fill="#ABABAB"/>
<path d="M69.7681 12.2455L68.8672 13.259L69.8003 14.1089L70.7012 13.0954L69.7681 12.2455Z" fill="#ABABAB"/>
<path d="M361.715 89.4327L363.074 91.2384C363.074 91.2384 364.579 90.0881 365.787 91.6499C366.024 91.947 366.165 92.3113 366.189 92.6927C366.213 93.074 366.119 93.4535 365.921 93.7785C365.759 94.0564 365.534 94.2911 365.264 94.4631C364.994 94.6351 364.688 94.7395 364.37 94.7675C363.639 94.8437 362.68 94.5179 361.982 93.1339L357.943 96.2199L359.283 98.0114L361.644 96.2C361.644 96.2 364.165 98.2274 366.901 96.1351C369.52 94.1326 368.354 91.2891 367.595 90.2706C367.018 89.497 364.849 86.9838 361.715 89.4327Z" fill="#ABABAB"/>
<path d="M358.459 98.6714L357.101 96.8511L355.423 98.1342L356.781 99.9546L358.459 98.6714Z" fill="#ABABAB"/>
<path d="M353.727 90.4404L352.901 90.1134C352.865 90.209 352.811 90.2964 352.742 90.3704C352.672 90.4443 352.589 90.5034 352.496 90.5439C352.404 90.5845 352.304 90.6058 352.203 90.6066C352.102 90.6073 352.002 90.5875 351.908 90.5484C351.767 90.4993 351.644 90.407 351.556 90.2841C351.468 90.1613 351.42 90.014 351.419 89.8627C351.416 89.7362 351.443 89.6109 351.498 89.4972C351.552 89.3835 351.633 89.2846 351.732 89.2085C351.961 89.0273 352.35 88.9327 352.873 89.2494L353.58 87.3571L352.762 87.0366L352.347 88.1443C351.972 88.1136 351.599 88.2084 351.284 88.414C350.969 88.6196 350.73 88.9246 350.603 89.282C350.142 90.5089 351.13 91.2174 351.59 91.3962C351.941 91.5438 353.188 91.9273 353.727 90.4404Z" fill="#767676"/>
<path d="M352.693 86.626L353.531 86.946L353.824 86.1562L352.985 85.8362L352.693 86.626Z" fill="#767676"/>
<path d="M317.279 36.3379L316.776 35.5983C316.692 35.6554 316.598 35.695 316.499 35.7148C316.4 35.7347 316.299 35.7342 316.2 35.7136C316.101 35.693 316.008 35.6526 315.925 35.5948C315.842 35.537 315.771 35.463 315.716 35.3771C315.628 35.257 315.579 35.1123 315.576 34.9629C315.572 34.8135 315.614 34.6666 315.696 34.5424C315.766 34.4357 315.859 34.3471 315.968 34.2839C316.078 34.2208 316.2 34.1848 316.326 34.1789C316.611 34.1584 316.988 34.3089 317.24 34.869L318.891 33.723L318.393 32.9904L317.429 33.6583C317.138 33.4182 316.777 33.2815 316.402 33.2691C316.027 33.2568 315.658 33.3694 315.352 33.5899C314.284 34.3356 314.694 35.4779 314.976 35.8928C315.185 36.2195 315.997 37.2485 317.279 36.3379Z" fill="#767676"/>
<path d="M318.722 32.7484L319.226 33.4917L319.911 33.0154L319.407 32.272L318.722 32.7484Z" fill="#767676"/>
<path d="M386.599 74.7055L384.772 74.2266C384.772 74.2266 384.376 75.7822 382.768 75.3882C382.458 75.317 382.176 75.15 381.963 74.9105C381.749 74.6709 381.614 74.3705 381.576 74.0507C381.541 73.7823 381.569 73.5097 381.658 73.2549C381.747 73.0001 381.894 72.7703 382.088 72.5844C382.532 72.1476 383.336 71.8521 384.513 72.4033L385.574 68.223L383.753 67.7368L383.131 70.1855C383.131 70.1855 380.427 70.1833 379.696 73.0117C379.01 75.7244 381.263 76.9934 382.283 77.2614C383.07 77.4691 385.801 77.9849 386.599 74.7055Z" fill="#767676"/>
<path d="M383.963 66.8703L385.805 67.3562L386.247 65.6205L384.406 65.1346L383.963 66.8703Z" fill="#767676"/>
<path d="M326.181 22.5506L327.479 22.8929C327.479 22.8929 327.763 21.7891 328.9 22.0672C329.12 22.1183 329.318 22.2364 329.469 22.4055C329.62 22.5746 329.716 22.7866 329.744 23.0127C329.768 23.2029 329.748 23.3962 329.685 23.5768C329.621 23.7574 329.516 23.9203 329.379 24.0521C329.059 24.3669 328.494 24.5697 327.669 24.1788L326.896 27.1425L328.18 27.4806L328.625 25.7444C329.192 25.7264 329.738 25.5202 330.178 25.1576C330.618 24.795 330.928 24.296 331.06 23.7375C331.552 21.8166 329.964 20.9222 329.235 20.7302C328.682 20.5885 326.75 20.2265 326.181 22.5506Z" fill="#ABABAB"/>
<path d="M328.045 28.0972L326.742 27.7549L326.427 28.9856L327.73 29.3279L328.045 28.0972Z" fill="#ABABAB"/>
<path d="M392.415 36.2803L393.713 36.6226C393.713 36.6226 393.997 35.5188 395.135 35.797C395.354 35.848 395.553 35.9661 395.704 36.1352C395.854 36.3043 395.95 36.5163 395.978 36.7425C396.003 36.9326 395.982 37.1259 395.919 37.3065C395.856 37.4872 395.751 37.65 395.613 37.7818C395.293 38.0966 394.729 38.2994 393.903 37.9085L393.13 40.8722L394.414 41.2103L394.859 39.4741C395.426 39.4561 395.972 39.25 396.412 38.8873C396.852 38.5247 397.162 38.0258 397.295 37.4672C397.786 35.5463 396.198 34.6519 395.47 34.4599C394.916 34.3182 392.984 33.9562 392.415 36.2803Z" fill="#ABABAB"/>
<path d="M394.28 41.827L392.977 41.4846L392.661 42.7153L393.964 43.0577L394.28 41.827Z" fill="#ABABAB"/>
</g>
<defs>
<clipPath id="clip0_2_10631">
<rect width="401" height="97" fill="white"/>
</clipPath>
</defs>
</svg>
